<svg xmlns="http://www.w3.org/2000/svg" width="1024" height="1024" viewBox="0 0 1024 1024">
  <defs>
    <linearGradient id="sky" x1="0" y1="0" x2="0" y2="1">
      <stop offset="0%" stop-color="#f8d8c8"/>
      <stop offset="48%" stop-color="#f3c188"/>
      <stop offset="100%" stop-color="#f6e2c8"/>
    </linearGradient>
    <linearGradient id="land" x1="0" y1="0" x2="1" y2="1">
      <stop offset="0%" stop-color="#f5d78c"/>
      <stop offset="100%" stop-color="#d7d27a"/>
    </linearGradient>
    <linearGradient id="lake" x1="0" y1="0" x2="0.8" y2="1">
      <stop offset="0%" stop-color="#b9f0d2"/>
      <stop offset="55%" stop-color="#8dddcf"/>
      <stop offset="100%" stop-color="#6dc9d9"/>
    </linearGradient>
    <linearGradient id="rim" x1="0" y1="0" x2="1" y2="1">
      <stop offset="0%" stop-color="#fff2da"/>
      <stop offset="100%" stop-color="#edc88e"/>
    </linearGradient>
    <radialGradient id="glow" cx="50%" cy="15%" r="75%">
      <stop offset="0%" stop-color="#fff6ec" stop-opacity="0.95"/>
      <stop offset="100%" stop-color="#fff6ec" stop-opacity="0"/>
    </radialGradient>
    <clipPath id="iconClip">
      <rect x="32" y="32" width="960" height="960" rx="168" ry="168"/>
    </clipPath>
  </defs>

  <g clip-path="url(#iconClip)">
    <rect width="1024" height="1024" fill="url(#sky)"/>
    <rect width="1024" height="1024" fill="url(#glow)"/>

    <path d="M0 610 C170 520, 330 540, 470 565 C650 598, 830 550, 1024 468 L1024 1024 L0 1024 Z" fill="url(#land)" opacity="0.9"/>
    <path d="M0 560 C160 460, 320 470, 500 500 C690 532, 850 494, 1024 420 L1024 1024 L0 1024 Z" fill="#f7d59f" opacity="0.65"/>
    <path d="M0 320 C160 250, 345 255, 520 295 C680 333, 865 308, 1024 244 L1024 448 L0 448 Z" fill="#ebb27f" opacity="0.35"/>

    <path d="M165 636
             C165 498, 282 400, 398 392
             C470 386, 515 430, 554 468
             C596 509, 642 525, 702 512
             C792 492, 880 552, 886 654
             C892 760, 810 850, 706 860
             C627 868, 584 830, 528 804
             C469 776, 413 808, 343 825
             C247 848, 165 777, 165 636 Z"
          fill="url(#rim)"/>
    <path d="M186 642
             C186 520, 290 427, 398 418
             C462 412, 503 451, 539 487
             C586 535, 640 552, 708 537
             C784 520, 859 569, 862 655
             C867 745, 796 822, 707 833
             C630 842, 590 809, 533 783
             C472 756, 413 789, 351 804
             C268 824, 191 760, 186 642 Z"
          fill="url(#lake)"/>

    <path d="M286 320 L270 470" stroke="#a56d49" stroke-width="7" stroke-linecap="round"/>
    <path d="M286 320 L240 398" stroke="#a56d49" stroke-width="7" stroke-linecap="round"/>
    <path d="M286 320 L336 384" stroke="#a56d49" stroke-width="7" stroke-linecap="round"/>
    <path d="M286 320 L352 346" stroke="#a56d49" stroke-width="4" stroke-linecap="round"/>

    <path d="M520 284 L504 468" stroke="#8a5a39" stroke-width="7" stroke-linecap="round"/>
    <path d="M520 284 L462 376" stroke="#8a5a39" stroke-width="7" stroke-linecap="round"/>
    <path d="M520 284 L570 366" stroke="#8a5a39" stroke-width="7" stroke-linecap="round"/>
    <path d="M520 284 L610 320" stroke="#8a5a39" stroke-width="4" stroke-linecap="round"/>
    <path d="M520 284 L440 312" stroke="#8a5a39" stroke-width="4" stroke-linecap="round"/>

    <path d="M712 336 L700 470" stroke="#94623f" stroke-width="6" stroke-linecap="round"/>
    <path d="M712 336 L666 410" stroke="#94623f" stroke-width="6" stroke-linecap="round"/>
    <path d="M712 336 L756 404" stroke="#94623f" stroke-width="6" stroke-linecap="round"/>
    <path d="M712 336 L792 364" stroke="#94623f" stroke-width="4" stroke-linecap="round"/>

    <ellipse cx="248" cy="714" rx="42" ry="24" fill="#d5b9a3"/>
    <ellipse cx="324" cy="742" rx="36" ry="20" fill="#d6b59f"/>
    <ellipse cx="382" cy="770" rx="30" ry="18" fill="#c9ac95"/>
    <ellipse cx="706" cy="706" rx="38" ry="22" fill="#d7b79f"/>
    <ellipse cx="770" cy="742" rx="34" ry="20" fill="#ceb09a"/>
    <ellipse cx="835" cy="780" rx="43" ry="23" fill="#d9bba1"/>
    <ellipse cx="430" cy="512" rx="22" ry="13" fill="#cdb19a"/>
    <ellipse cx="476" cy="503" rx="20" ry="12" fill="#d2b49d"/>
    <ellipse cx="520" cy="510" rx="22" ry="13" fill="#ccb09a"/>
    <ellipse cx="568" cy="520" rx="20" ry="12" fill="#d2b49d"/>

    <ellipse cx="511" cy="736" rx="176" ry="58" fill="none" stroke="#d3f7ee" stroke-width="7" opacity="0.8"/>
    <ellipse cx="511" cy="736" rx="138" ry="44" fill="none" stroke="#e0fffa" stroke-width="6" opacity="0.85"/>
    <ellipse cx="511" cy="736" rx="104" ry="34" fill="none" stroke="#f4fffe" stroke-width="5" opacity="0.9"/>
    <ellipse cx="511" cy="736" rx="72" ry="24" fill="none" stroke="#ffffff" stroke-width="4" opacity="0.95"/>

    <path d="M438 704 L510 652 L586 706 L510 742 Z" fill="#fff7f0" stroke="#d7c4b5" stroke-width="5" stroke-linejoin="round"/>
    <path d="M510 652 L510 742" stroke="#d9c7b7" stroke-width="4"/>
    <path d="M510 652 L470 702" stroke="#d9c7b7" stroke-width="4"/>
    <path d="M510 652 L550 702" stroke="#d9c7b7" stroke-width="4"/>
    <path d="M438 704 L586 706" stroke="#d5bfb0" stroke-width="4"/>
  </g>

  <rect x="32" y="32" width="960" height="960" rx="168" ry="168" fill="none" stroke="#fff0e1" stroke-width="8" opacity="0.85"/>
</svg>
